# xmcd
# Track frame offsets:
# 150
# 20120
# 36970
# 53022
# 74825
# 100172
# 114772
# 132640
# 147147
# 163642
# 190552
# 207437
#
# Disc length: 2930 seconds
# Revision: 0
# Processed by: cddbd v1.4PL0 Copyright (c) Steve Scherf et al.
# Submitted via: VisiTrax 2.9.5.180 - For more info visit www.synapsa.com
#
DISCID=ae0b700c
DTITLE=Robert Marshall - Unconditional love
DYEAR=1992
DGENRE=
TTITLE0=I always will
TTITLE1=For a workin' man
TTITLE2=Unconditional love
TTITLE3=Throw away your bottle
TTITLE4=Give me reason
TTITLE5=Who's been lovin' you lately
TTITLE6=Country music
TTITLE7=The Abeline waltz
TTITLE8=Dear Abby
TTITLE9=When I look into your eyes
TTITLE10=Keep on rollin'
TTITLE11=Waking up next to you
EXTD=
EXTT0=
EXTT1=
EXTT2=
EXTT3=
EXTT4=
EXTT5=
EXTT6=
EXTT7=
EXTT8=
EXTT9=
EXTT10=
EXTT11=
PLAYORDER=
